<svg width="35" height="25" viewBox="0 0 35 25" fill="none" xmlns="http://www.w3.org/2000/svg">
<path d="M23.1289 2.02137H31.5959V4.29763H23.1289V2.02137ZM14.645 11.0277C16.5166 10.0353 17.497 8.52566 17.497 6.19295C17.497 1.57928 14.3988 0.459961 10.8211 0.459961H0.974792V23.6177H11.0969C14.8912 23.6177 18.4519 21.5954 18.4519 16.8923C18.4519 13.9859 17.2127 11.8366 14.645 11.0277ZM5.5669 4.41051H9.87464C11.5341 4.41051 13.0238 4.92314 13.0238 7.05831C13.0238 9.02418 11.8651 9.81429 10.2227 9.81429H5.5669V4.41051ZM10.4688 19.6859H5.56265V13.3086H10.5664C12.5866 13.3086 13.8641 14.2445 13.8641 16.6149C13.8641 18.9476 12.3405 19.6859 10.4688 19.6859ZM34.9063 15.4767C34.9063 10.515 32.2877 6.38108 27.5513 6.38108C22.9464 6.38108 19.8143 10.2235 19.8143 15.2604C19.8143 20.4808 22.7809 24.0645 27.5513 24.0645C31.163 24.0645 33.5015 22.2632 34.6262 18.4208H30.9635C30.5646 19.8553 28.9433 20.6077 27.6828 20.6077C25.2467 20.6077 23.9735 19.0275 23.9735 16.3421H34.8766C34.8893 16.0646 34.9063 15.773 34.9063 15.4767ZM23.9735 13.4356C24.1051 11.2299 25.4335 9.85191 27.4197 9.85191C29.5078 9.85191 30.5518 11.2111 30.7343 13.4356H23.9735Z" fill="#F2F2F2"/>
</svg>
