<svg width="27" height="27" viewBox="0 0 27 27" fill="none" xmlns="http://www.w3.org/2000/svg">
<g clip-path="url(#clip0)">
<path d="M24.5084 0.107422H3.13203C1.77545 0.107422 0.665527 1.21735 0.665527 2.57392V23.9503C0.665527 25.3068 1.77545 26.4168 3.13203 26.4168H24.5084C25.865 26.4168 26.9749 25.3068 26.9749 23.9503V2.57392C26.9749 1.21735 25.865 0.107422 24.5084 0.107422ZM18.7532 4.21826C18.7532 3.76607 19.1232 3.39609 19.5754 3.39609H22.864C23.3162 3.39609 23.6862 3.76607 23.6862 4.21826V7.50693C23.6862 7.95912 23.3162 8.32909 22.864 8.32909H19.5754C19.3575 8.32866 19.1486 8.2419 18.9945 8.08781C18.8404 7.93372 18.7536 7.72485 18.7532 7.50693V4.21826ZM13.8202 8.32909C15.1065 8.36231 16.3289 8.89661 17.2269 9.81811C18.1249 10.7396 18.6275 11.9754 18.6275 13.2621C18.6275 14.5488 18.1249 15.7846 17.2269 16.7061C16.3289 17.6276 15.1065 18.1619 13.8202 18.1951C12.5339 18.1619 11.3115 17.6276 10.4135 16.7061C9.5155 15.7846 9.01294 14.5488 9.01294 13.2621C9.01294 11.9754 9.5155 10.7396 10.4135 9.81811C11.3115 8.89661 12.5339 8.36231 13.8202 8.32909ZM23.6862 22.3059C23.6862 22.7581 23.3162 23.1281 22.864 23.1281H4.77636C4.55844 23.1277 4.34958 23.0409 4.19548 22.8868C4.04139 22.7327 3.95463 22.5239 3.9542 22.3059V11.6178H5.76296C5.51879 12.8125 5.54348 14.0465 5.83524 15.2305C6.127 16.4145 6.67852 17.5187 7.44984 18.4632C8.22115 19.4077 9.19293 20.1687 10.2947 20.6911C11.3966 21.2136 12.6008 21.4843 13.8202 21.4838C15.0396 21.4843 16.2438 21.2136 17.3457 20.6911C18.4475 20.1687 19.4193 19.4077 20.1906 18.4632C20.9619 17.5187 21.5134 16.4145 21.8052 15.2305C22.0969 14.0465 22.1216 12.8125 21.8774 11.6178H23.6862V22.3059Z" fill="#F2F2F2"/>
</g>
<defs>
<clipPath id="clip0">
<rect width="26.3094" height="26.3094" fill="white" transform="translate(0.665527 0.107422)"/>
</clipPath>
</defs>
</svg>
