<svg width="27" height="27" viewBox="0 0 27 27" fill="none" xmlns="http://www.w3.org/2000/svg">
<path d="M0.09375 1.99183C0.09375 0.950966 0.95867 0.107422 2.02584 0.107422H24.471C25.5382 0.107422 26.4031 0.950966 26.4031 1.99183V24.5324C26.4031 25.5732 25.5382 26.4168 24.471 26.4168H2.02584C0.95867 26.4168 0.09375 25.5732 0.09375 24.5324V1.99183ZM8.2217 22.1316V10.2513H4.27365V22.1316H8.2217ZM6.24849 8.62836C7.6248 8.62836 8.4815 7.7174 8.4815 6.57623C8.45683 5.4104 7.62645 4.5241 6.2748 4.5241C4.92316 4.5241 4.04015 5.41205 4.04015 6.57623C4.04015 7.7174 4.89685 8.62836 6.22218 8.62836H6.24849ZM14.3189 22.1316V15.4967C14.3189 15.1416 14.3452 14.7864 14.4504 14.5332C14.7349 13.8245 15.3844 13.0894 16.4763 13.0894C17.9052 13.0894 18.4758 14.178 18.4758 15.7763V22.1316H22.4238V15.3175C22.4238 11.6671 20.4769 9.97014 17.8789 9.97014C15.784 9.97014 14.8451 11.1212 14.3189 11.9318V11.9729H14.2926C14.3013 11.9592 14.3101 11.9455 14.3189 11.9318V10.2513H10.3725C10.4218 11.3662 10.3725 22.1316 10.3725 22.1316H14.3189Z" fill="#F2F2F2"/>
</svg>
