<svg width="18" height="18" viewBox="0 0 18 18" fill="none" xmlns="http://www.w3.org/2000/svg">
<path d="M16.1651 3.00038C16.0969 2.99336 16.0282 2.99336 15.9601 3.00038H1.96007C1.87034 3.00177 1.78121 3.01522 1.69507 3.04038L8.92007 10.2354L16.1651 3.00038Z" fill="#F9F3EB"/>
<path d="M16.9048 3.69531L9.62484 10.9453C9.43748 11.1316 9.18403 11.2361 8.91984 11.2361C8.65566 11.2361 8.40221 11.1316 8.21484 10.9453L0.999844 3.75031C0.977663 3.83183 0.965903 3.91584 0.964844 4.00031V14.0003C0.964844 14.2655 1.0702 14.5199 1.25774 14.7074C1.44527 14.895 1.69963 15.0003 1.96484 15.0003H15.9648C16.2301 15.0003 16.4844 14.895 16.672 14.7074C16.8595 14.5199 16.9648 14.2655 16.9648 14.0003V4.00031C16.9609 3.89614 16.9406 3.79323 16.9048 3.69531ZM2.64984 14.0003H1.95484V13.2853L5.58984 9.68031L6.29484 10.3853L2.64984 14.0003ZM15.9548 14.0003H15.2548L11.6098 10.3853L12.3148 9.68031L15.9498 13.2853L15.9548 14.0003Z" fill="#F9F3EB"/>
</svg>
