<svg width="165" height="67" viewBox="0 0 165 67" fill="none" xmlns="http://www.w3.org/2000/svg">
<path d="M40.4114 66.1132H0V12.8613H14.8836C15.1601 12.8613 15.3751 13.1089 15.3751 13.3896C15.3751 13.6702 15.1447 13.9178 14.8836 13.9178H0.998382V65.0402H39.4284V30.5899C39.4284 30.2928 39.6588 30.0617 39.9199 30.0617C40.181 30.0617 40.4114 30.3093 40.4114 30.5899V66.1132Z" fill="#F8F0E6"/>
<path d="M56.3794 35.5529C56.4649 35.7825 56.6358 36.0121 56.8922 36.2417C57.1485 36.4254 57.4477 36.6091 57.875 36.7928C58.3023 36.9765 58.8577 37.1143 59.4987 37.252C60.8233 37.5735 61.8061 38.0327 62.4471 38.5838C63.088 39.1348 63.3871 39.9155 63.3871 40.9258C63.3871 41.4769 63.3017 41.982 63.088 42.4412C62.8744 42.9005 62.618 43.2678 62.2334 43.5893C61.8916 43.9107 61.4643 44.1404 60.9515 44.324C60.4388 44.5077 59.8833 44.5996 59.3278 44.5996C58.3877 44.5996 57.4904 44.4159 56.7212 44.0944C55.9094 43.773 55.183 43.2678 54.4565 42.5331L55.3111 41.4769C55.9521 42.0739 56.5503 42.5331 57.1913 42.8545C57.8322 43.176 58.5586 43.3138 59.4132 43.3138C60.2251 43.3138 60.8661 43.1301 61.3361 42.7168C61.8061 42.3035 62.0625 41.7983 62.0625 41.1095C62.0625 40.788 62.0198 40.5125 61.9343 40.2829C61.8489 40.0533 61.6779 39.8237 61.4643 39.64C61.2506 39.4563 60.9088 39.2726 60.5242 39.0889C60.1397 38.9511 59.5842 38.7675 58.9859 38.6297C58.3023 38.4919 57.704 38.3082 57.1913 38.0786C56.6785 37.849 56.2512 37.6194 55.9521 37.3439C55.653 37.0683 55.3966 36.701 55.2257 36.3336C55.0548 35.9203 54.9693 35.4611 54.9693 34.9559C54.9693 34.4508 55.0548 33.9916 55.2684 33.5323C55.4821 33.119 55.7384 32.7517 56.0803 32.4302C56.4221 32.1087 56.8494 31.8791 57.3195 31.6955C57.7895 31.5118 58.3023 31.4199 58.9005 31.4199C59.7978 31.4199 60.5242 31.5577 61.2079 31.7873C61.8489 32.0628 62.4898 32.4302 63.1308 32.9353L62.3616 34.0375C61.8061 33.5323 61.2506 33.2109 60.6951 32.9813C60.1397 32.7517 59.5414 32.6598 58.9432 32.6598C58.5586 32.6598 58.2168 32.7057 57.875 32.8435C57.5758 32.9354 57.2767 33.119 57.0631 33.3027C56.8494 33.4864 56.6785 33.716 56.5503 33.9456C56.4221 34.2212 56.3794 34.4967 56.3794 34.7722C56.2085 35.0018 56.2939 35.2774 56.3794 35.5529Z" fill="#F8F0E6"/>
<path d="M70.3522 44.3572H68.9849V32.8767H64.9683V31.5449H74.3261V32.8767H70.3095V44.3572H70.3522Z" fill="#F8F0E6"/>
<path d="M86.6739 38.8534C86.6739 39.8178 86.5457 40.5985 86.3321 41.3332C86.0757 42.022 85.7338 42.619 85.3065 43.1242C84.8792 43.5834 84.3238 43.9508 83.7255 44.1804C83.1273 44.41 82.4436 44.5478 81.6745 44.5478C80.9481 44.5478 80.2644 44.41 79.6662 44.1804C79.0679 43.9508 78.5124 43.5834 78.0851 43.1242C77.6578 42.6649 77.316 42.068 77.0596 41.3791C76.8032 40.6903 76.7178 39.8637 76.7178 38.9912V31.5059H78.0851V38.8993C78.0851 40.277 78.427 41.3791 79.0679 42.1139C79.7089 42.8486 80.6062 43.216 81.7599 43.216C82.8709 43.216 83.7255 42.8486 84.4092 42.1598C85.0502 41.471 85.392 40.4148 85.392 38.9912V31.5059H86.7594V38.8534H86.6739Z" fill="#F8F0E6"/>
<path d="M99.9219 40.4538C99.6228 41.2345 99.1955 41.9233 98.5973 42.5203C98.0418 43.1173 97.3581 43.5306 96.589 43.898C95.8199 44.2194 94.9653 44.4031 94.0252 44.4031H89.8804V31.5449H94.0252C94.9653 31.5449 95.8199 31.7286 96.589 32.0501C97.3581 32.3715 98.0418 32.8307 98.5973 33.3818C99.1528 33.9788 99.5801 34.6217 99.9219 35.4024C100.264 36.1831 100.392 37.0097 100.392 37.9281C100.349 38.8006 100.221 39.6731 99.9219 40.4538ZM98.5973 35.9535C98.3837 35.3105 98.0418 34.8054 97.6145 34.3462C97.1872 33.887 96.6745 33.5196 96.0335 33.244C95.4353 32.9685 94.7516 32.8308 93.9825 32.8308H91.1623V42.9795H93.9825C94.7516 42.9795 95.4353 42.8418 96.0335 42.6122C96.6317 42.3366 97.1872 42.0152 97.6145 41.556C98.0418 41.0967 98.3837 40.5457 98.5973 39.9487C98.811 39.3517 98.9392 38.6629 98.9392 37.9281C98.9819 37.2393 98.8537 36.5504 98.5973 35.9535Z" fill="#F8F0E6"/>
<path d="M104.667 31.5059V44.3641H103.299V31.5059H104.667Z" fill="#F8F0E6"/>
<path d="M119.406 40.4588C119.107 41.2395 118.679 41.9742 118.167 42.5712C117.611 43.1682 116.97 43.6733 116.244 44.0407C115.475 44.4081 114.663 44.5918 113.765 44.5918C112.868 44.5918 112.013 44.4081 111.287 44.0407C110.561 43.6733 109.92 43.2141 109.364 42.6171C108.809 42.0201 108.424 41.3313 108.125 40.5047C107.826 39.724 107.698 38.8515 107.698 37.979C107.698 37.1065 107.826 36.234 108.125 35.4533C108.424 34.6726 108.851 33.9379 109.364 33.3409C109.92 32.7439 110.561 32.2388 111.287 31.8714C112.056 31.504 112.868 31.3203 113.765 31.3203C114.663 31.3203 115.517 31.504 116.244 31.8714C116.97 32.2388 117.611 32.698 118.167 33.295C118.722 33.892 119.107 34.5808 119.406 35.4074C119.705 36.188 119.833 37.0606 119.833 37.9331C119.833 38.8056 119.705 39.6322 119.406 40.4588ZM118.081 35.8666C117.868 35.2237 117.526 34.6726 117.098 34.1675C116.671 33.7083 116.158 33.295 115.603 33.0194C115.047 32.7439 114.406 32.6061 113.723 32.6061C113.039 32.6061 112.398 32.7439 111.843 33.0194C111.287 33.295 110.774 33.6623 110.347 34.1675C109.92 34.6267 109.621 35.2237 109.364 35.8666C109.151 36.5095 109.022 37.1983 109.022 37.9331C109.022 38.6678 109.151 39.3567 109.364 39.9996C109.578 40.6425 109.92 41.1935 110.347 41.6987C110.774 42.1579 111.244 42.5712 111.843 42.8467C112.398 43.1223 113.039 43.26 113.723 43.26C114.406 43.26 115.047 43.1223 115.603 42.8467C116.158 42.5712 116.671 42.2038 117.098 41.6987C117.526 41.2395 117.825 40.6425 118.081 39.9996C118.295 39.3567 118.423 38.6678 118.423 37.9331C118.423 37.1983 118.338 36.5095 118.081 35.8666Z" fill="#F8F0E6"/>
<path d="M127.825 31.5059H129.192V42.9864H135.901V44.3181H127.825V31.5059Z" fill="#F8F0E6"/>
<path d="M139.831 31.5059V44.3641H138.464V31.5059H139.831Z" fill="#F8F0E6"/>
<path d="M152.138 31.5059H153.463V44.3641H152.394L144.66 33.8479V44.3641H143.335V31.5059H144.617L152.138 41.7924V31.5059Z" fill="#F8F0E6"/>
<path d="M157.992 35.5431C158.078 35.7728 158.249 36.0024 158.505 36.232C158.761 36.4157 159.06 36.5994 159.488 36.783C159.915 36.9667 160.428 37.1045 161.111 37.2423C162.436 37.5637 163.419 38.0229 164.06 38.574C164.701 39.1251 165 39.9057 165 40.916C165 41.4671 164.914 41.9723 164.701 42.4315C164.487 42.8907 164.231 43.2581 163.846 43.5795C163.504 43.901 163.077 44.1306 162.564 44.3143C162.052 44.498 161.496 44.5898 160.941 44.5898C160.001 44.5898 159.103 44.4061 158.334 44.0847C157.565 43.7632 156.796 43.2581 156.069 42.5233L156.924 41.4671C157.565 42.0641 158.163 42.5233 158.804 42.8448C159.445 43.1662 160.171 43.304 161.026 43.304C161.838 43.304 162.479 43.1203 162.949 42.707C163.419 42.2937 163.675 41.7886 163.675 41.0997C163.675 40.7783 163.633 40.5027 163.547 40.2731C163.462 40.0435 163.291 39.8139 163.077 39.6302C162.863 39.4465 162.522 39.2628 162.137 39.0791C161.752 38.9414 161.197 38.7577 160.599 38.6199C159.915 38.4822 159.317 38.2985 158.804 38.0689C158.291 37.8393 157.864 37.6096 157.565 37.3341C157.223 37.0586 157.009 36.6912 156.838 36.3238C156.668 35.9105 156.582 35.4513 156.582 34.9462C156.582 34.441 156.668 33.9818 156.881 33.5226C157.095 33.1093 157.351 32.7419 157.693 32.4204C158.035 32.099 158.462 31.8694 158.932 31.6857C159.402 31.502 159.915 31.4102 160.513 31.4102C161.368 31.4102 162.137 31.5479 162.821 31.7775C163.462 32.0531 164.103 32.4204 164.744 32.9256L163.974 34.0277C163.419 33.5226 162.863 33.2011 162.308 32.9715C161.752 32.7419 161.154 32.65 160.556 32.65C160.171 32.65 159.83 32.696 159.488 32.8337C159.189 32.9256 158.89 33.1093 158.676 33.293C158.462 33.4767 158.291 33.7063 158.163 33.9359C158.035 34.2114 157.992 34.4869 157.992 34.7625C157.864 34.9921 157.907 35.2676 157.992 35.5431Z" fill="#F8F0E6"/>
<path d="M23.0397 43.0831C23.4698 43.8754 25.743 44.4201 26.9257 43.8259C27.9395 43.2976 28.4924 41.9936 29.2911 40.673C30.1513 39.2534 31.2418 37.8173 31.2418 37.8173C31.2418 37.8173 27.4787 37.7017 24.76 40.1118C24.1149 40.673 23.4698 41.9606 23.1319 42.6043C23.0704 42.7199 23.0397 42.7859 23.0243 42.885C23.0243 42.918 23.009 43.0005 23.0397 43.0831C23.0551 43.1161 23.0397 43.0831 23.0397 43.0831C23.0397 43.0831 24.1763 42.7694 24.975 42.2412C25.9734 41.5809 27.0332 40.4914 27.0332 40.4914C27.0332 40.4914 26.726 42.1256 25.1747 42.918C24.4221 43.2976 23.4544 43.1821 23.1626 43.0831C23.1319 43.0665 23.1165 43.0335 23.1165 43.0335C23.0858 43.017 23.0397 43.0831 23.0397 43.0831Z" fill="#F8F0E6"/>
<path d="M30.4117 19.0657C30.596 18.9006 31.4101 18.2073 31.4254 18.1908C32.3931 17.2334 33.2993 16.243 34.1748 15.2526C34.1748 15.2526 35.9104 16.8868 37.9379 16.2595C43.2217 14.5923 44.9266 11.9676 44.9266 11.9676C44.9266 11.9676 40.7948 11.5054 37.1085 13.1066C36.4327 13.4038 34.9428 14.4107 34.5281 14.6748C34.9889 14.6913 35.7261 14.6748 36.7245 14.4107C38.3987 13.965 39.8579 13.7504 39.8579 13.7504C39.8579 13.7504 38.1837 14.8069 37.2928 15.038C35.0657 15.5827 34.5742 14.6748 34.5742 14.6748L34.6049 14.6418C34.697 14.5428 35.3114 13.9815 35.3729 13.9155C35.7568 13.4698 36.1408 13.0406 36.5248 12.6114C36.5863 12.5454 36.6477 12.4959 36.7092 12.4464C36.9088 12.2648 37.0778 12.1162 37.2314 11.7861C37.3543 11.4889 37.2467 11.0598 37.1085 10.8121C37.7843 10.4655 39.9501 9.64014 40.5337 8.12149C40.9945 6.91647 40.5491 5.44734 40.3033 3.78013C40.0115 1.98085 39.9193 0 39.9193 0C39.9193 0 36.8474 2.82271 36.2944 6.85045C36.1716 7.74183 36.5248 10.0858 36.9242 10.5976C37.4618 10.4985 36.8935 9.68967 37.0317 8.22053C37.2007 6.45427 37.9994 5.72796 38.0147 5.71146C38.1069 5.62892 37.8918 7.31264 37.769 8.55068C37.6307 10.0033 37.2621 10.3169 37.0624 10.4325C36.9395 10.515 36.8474 10.449 36.8167 10.4655L37.001 10.5315C36.7399 10.5315 36.4173 10.5315 36.1101 10.6141C35.634 10.7461 35.3114 11.0267 35.0657 11.2909C35.0042 11.3569 34.9581 11.4064 34.8813 11.4889C34.3438 12.0832 33.8215 12.6775 33.3147 13.2717C32.8385 13.8164 32.3777 14.3447 31.9169 14.8564C31.9169 14.8564 30.9493 14.4767 30.9493 12.892C30.9493 11.3239 31.7787 9.67316 31.7787 9.67316C31.7787 9.67316 31.6558 11.3734 31.6097 12.892C31.5636 14.2951 31.9323 14.9059 31.9323 14.9059C32.3163 14.1466 33.2993 12.0172 33.4068 10.5645C33.5297 8.88082 33.0382 3.87917 33.0382 3.87917C33.0382 3.87917 29.7973 6.86695 29.4901 11.8191C29.3979 13.4698 30.6574 15.2195 31.0875 15.7643C29.9509 16.9528 28.8603 18.1413 27.8159 19.2803C27.8159 19.2803 27.309 19.0492 26.8943 18.1083C26.3106 16.7382 26.7714 14.7904 26.7714 14.7904C26.7714 14.7904 27.1861 16.9198 27.4165 17.9267C27.6469 18.9501 27.8466 19.3628 27.8466 19.3628C28.1538 18.7356 28.3995 17.8112 28.292 16.8703C27.9388 13.7999 26.6178 8.46814 26.6178 8.46814C26.6178 8.46814 25.2662 12.9581 25.389 16.0614C25.4966 18.6035 26.5103 19.8911 26.8943 20.3037C25.6194 21.7233 24.4214 23.1264 23.3001 24.4965C23.3001 24.4965 22.6397 23.7372 22.3632 21.7233C22.1942 20.4523 22.1635 17.3985 22.1635 17.3985C23.3462 20.0396 23.254 24.3315 23.3155 24.6781C23.4691 24.5791 24.2217 20.5678 23.2848 16.177C22.9622 14.6583 20.735 10.383 20.735 10.383C20.735 10.383 20.8579 14.7408 20.52 17.8607C20.4279 18.686 20.5354 21.3437 21.0269 22.7798C21.4877 24.1334 22.1481 24.9752 22.5629 25.4044C20.5354 27.6494 16.6186 33.6084 16.6186 33.6084C16.465 32.2219 16.0657 30.5051 15.5588 29.3991C13.9153 25.7511 12.6098 26.5599 14.0382 30.34C14.8062 32.3869 15.2209 35.3747 15.2209 35.3747C15.2209 35.3747 14.6219 36.8438 13.9 38.1644C11.8879 41.4823 10.4901 44.8993 9.38422 48.894C8.72375 51.1885 8.52407 53.417 8.76983 55.5134C9.0463 57.6098 9.99861 58.0885 10.7666 58.105C10.782 58.105 10.8127 58.105 10.828 58.105C12.2104 58.105 12.8248 57.1806 13.3317 56.4378L13.4545 56.2562C14.5297 54.4404 15.2363 52.5256 15.8353 50.099C16.6954 46.6656 17.1562 41.5979 17.1255 39.0723C17.1255 38.8907 17.0487 36.8603 17.0487 36.8603C17.0487 36.8603 18.7997 33.7735 20.5047 31.2975C21.9485 29.3166 23.8377 26.9066 25.4966 24.8927C25.942 25.5035 26.9097 27.3523 29.2751 27.0386C36.6016 26.0977 38.0454 23.308 38.0454 23.308C38.0454 23.308 32.3777 22.7468 28.8143 23.308C27.6776 23.4896 26.4335 24.0013 25.7577 24.3975C26.0034 24.4635 26.9711 24.7606 28.676 24.5791C30.0891 24.4305 31.1029 24.414 32.0091 24.6781C31.3025 24.7772 30.5806 25.0413 28.8603 25.3054C26.8789 25.619 25.9113 24.414 25.9113 24.414L25.9574 24.3645C25.9727 24.348 25.9727 24.348 25.9881 24.3315L26.0341 24.2819C27.2322 22.8623 28.461 21.4427 29.7512 20.0231C30.212 20.3202 31.963 21.3602 33.8676 21.2116C39.5507 20.7494 41.7164 18.4384 41.7164 18.4384C41.7164 18.4384 39.9501 18.2073 37.1392 18.0753C35.7415 18.0092 34.2209 17.7946 32.5927 18.0257C31.8401 18.1248 30.6881 18.9006 30.2734 19.1482C30.5192 19.1317 32.5313 18.6365 33.0689 18.6035C34.6356 18.521 35.849 19.0327 35.849 19.0327C35.849 19.0327 34.6356 19.0987 33.1303 19.1978C31.41 19.3133 30.6113 19.1978 30.3502 19.1482C30.3349 19.1482 30.3809 19.0987 30.4117 19.0657ZM13.5621 52.1459C12.9323 53.7306 11.7343 56.0911 11.1967 56.0911C10.6744 56.0746 10.0447 54.5229 10.5823 51.1555C11.3503 46.3354 15.482 38.1809 15.6663 38.0654C15.7892 38.2139 15.6817 46.8636 13.5621 52.1459Z" fill="#F8F0E6"/>
</svg>
