<svg width="326" height="130" viewBox="0 0 326 130" fill="none" xmlns="http://www.w3.org/2000/svg">
<path d="M209.971 82.6387C209.127 80.8345 208.438 78.8185 208.128 76.7409C207.662 69.8522 207.567 62.9087 209.026 56.1157C209.127 55.5211 209.228 54.9265 209.545 54.4892C209.701 54.2705 210.079 54.2158 210.261 54.1816C210.848 54.2841 211.091 54.6327 211.152 55.0085C210.95 56.1977 210.342 57.257 210.146 58.4529C209.161 64.5968 208.985 71.0003 210.112 77.2056C210.342 78.716 210.781 80.3903 211.571 81.8118C211.989 83.2948 213.164 83.4998 214.386 82.7276C216.668 81.4086 218.653 79.3652 220.233 77.1851C223.683 72.2031 227.537 67.3577 230.366 62.0887C230.522 61.87 230.866 61.6239 231.055 61.5966C231.642 61.6991 231.703 62.075 231.784 62.6422C231.737 63.6126 231.264 64.2687 230.819 65.1093C227.659 69.4626 224.553 74.1986 221.205 78.5793C220.098 80.1033 218.592 81.4974 217.269 82.8574C216.58 83.3495 215.919 84.0329 215.203 84.3336C212.907 85.6662 211.085 84.976 209.971 82.6387ZM210.16 38.3471C210.477 37.9097 211.436 37.9575 211.706 38.4974C212.064 39.6045 212.232 40.7322 212.651 42.2152C212.678 42.4065 211.989 42.8986 211.402 42.7961C209.424 42.3245 208.863 39.8984 210.16 38.3471Z" fill="#FFF4EB"/>
<path d="M232.263 83.6365C232.176 83.0692 231.906 82.5293 231.818 81.9689C231.109 74.7317 231.149 67.385 230.967 59.8744C231.055 57.9267 232.277 57.1613 232.425 64.4806L232.938 79.2832C233.08 80.2263 233.195 80.9848 233.337 81.9279L234.012 82.5977C234.201 82.5703 234.572 82.5088 234.728 82.297L236.571 79.3037C237.435 77.4311 238.265 75.3672 239.318 73.4674C241.391 69.4763 242.694 69.2712 245.692 72.6746C246.178 73.3717 246.664 74.0688 247.339 74.7385L249.418 77.1236C250.519 78.1145 251.883 78.2922 253.131 77.7113C254.353 76.9391 255.602 76.365 256.635 75.6269C258.863 73.9321 260.814 71.6973 262.583 69.4899C265.804 65.5125 268.99 61.3505 272.4 57.3389C273.189 56.2523 273.979 55.1589 275.228 54.5848C275.384 54.3661 275.789 54.496 276.005 54.66C276.437 54.9812 276.518 55.5484 276.363 55.7671C271.522 60.3801 267.998 66.1412 263.744 70.8636C261.949 72.8796 260.153 74.8957 257.925 76.5974C256.919 77.5268 255.515 78.3264 254.293 79.0918C252.193 80.3834 250.215 79.9187 248.655 78.4152C247.548 77.4243 246.421 76.2488 245.503 75.2305C244.8 74.3695 244.287 73.4879 243.612 72.8181C242.721 71.9912 241.789 72.1347 241.344 72.9753C240.324 75.0665 239.305 77.1578 238.252 79.0576C237.388 80.9302 236.557 82.9941 235.072 84.5727C234.728 84.8188 234.221 85.2835 233.634 85.181C232.898 85.2835 232.378 84.395 232.263 83.6365Z" fill="#FFF4EB"/>
<path d="M266.188 124.976C266.148 120.923 266.884 116.946 268.207 113.064C270.442 106.339 273.446 99.6897 277.314 93.6826C278.685 91.3453 279.461 88.9055 279.407 86.0147C279.387 80.8003 278.773 75.4834 278.003 70.3852C277.038 63.9612 275.883 57.5713 274.756 51.366C274.101 47.0195 273.412 36.1123 274.938 31.0414C275.485 29.6063 276.059 28.3556 277.227 27.2075C278.422 26.2507 279.812 26.6129 280.251 28.2873C280.697 29.9548 280.42 31.9298 279.9 33.5564C278.969 36.2148 278.03 38.8733 276.909 41.5591C276.018 43.2402 275.687 44.8394 275.971 46.7325L277.909 59.5737C279.232 67.098 280.751 74.6018 280.953 82.297C281.068 83.0487 281.183 83.8073 281.48 84.5317C281.568 85.099 282.155 85.2015 282.499 84.9555L283.978 83.3768C291.249 73.358 299.438 64.3644 308.249 55.6578C310.234 53.6144 312.185 51.3796 314.325 49.1107C314.825 48.646 315.304 47.9899 316.046 47.8806L316.877 48.3316C316.877 48.3316 316.904 48.523 316.931 48.7075C316.614 49.1449 316.33 49.7668 315.824 50.2315C312.867 53.3957 310.092 56.5257 306.912 59.5327C299.958 66.5991 293.437 73.9868 287.529 81.6614C286.395 82.9941 285.477 84.4907 284.498 85.6115C282.101 88.6869 280.872 91.9741 280.724 96.054C280.413 102.868 278.955 109.661 276.882 116.167C275.741 120.014 274.364 123.513 272.204 126.937C271.259 128.242 270.334 129.739 268.383 129.459C267.026 129.295 266.242 127.867 266.188 124.976ZM272.649 122.242C276.072 114.561 277.915 106.544 278.746 98.1042C278.874 97.701 278.604 97.1611 278.361 96.8126C277.429 96.9561 277.139 97.5848 276.849 98.2067C273.385 104.351 270.691 110.563 269.024 117.199C268.531 119.016 268.261 120.992 268.173 122.939C267.971 124.128 268.173 125.454 268.342 126.582C268.396 126.958 269.389 127.19 269.922 126.917C271.238 125.55 271.94 123.896 272.649 122.242ZM278.631 30.276C278.577 29.9001 278.334 29.5516 278.145 29.5789C277.956 29.6063 277.585 29.6678 277.429 29.8865C275.431 33.0985 275.512 38.6887 276.876 36.3515C278.145 34.602 278.793 32.5722 278.631 30.276Z" fill="#FFF4EB"/>
<path d="M201.383 109.715C198.602 109.36 196.002 108.97 193.437 108.759C192.249 108.636 190.919 108.738 189.73 108.615C187.989 108.615 186.375 109.175 185.45 111.144C185.167 111.601 184.694 112.094 184.181 112.408C183.857 112.674 183.404 112.387 183.283 111.827C183.02 111.492 183.08 110.898 183.222 110.665C185.599 107.392 185.74 103.64 186.071 99.8469C186.686 92.0765 186.341 84.3267 185.815 76.611C184.491 60.8585 182.979 45.1469 181.656 29.4012L179.354 5.65282C179.252 4.30651 179.374 3.10371 179.273 1.7574C179.293 0.971479 179.725 0.288071 180.171 0.575103C180.623 0.862134 180.522 1.27901 180.603 1.65489L182.844 27.7679C183.843 38.5042 184.883 49.4251 185.923 60.3459L187.448 80.5543C188.016 88.4476 188.036 96.4708 187.05 104.323L186.949 106.496C187.361 106.599 187.401 106.783 187.584 106.742C193.396 106.804 199.047 107.884 204.759 108.369C211.989 108.704 218.889 107.549 225.647 104.856C227.45 104.255 228.719 102.991 229.988 101.726C230.17 101.685 230.582 101.788 230.805 101.931C231.028 102.075 230.927 102.492 230.967 102.676C230.333 104.187 229.165 105.041 227.774 105.745C226.194 106.49 224.621 107.235 222.818 107.836C215.676 109.633 208.546 110.645 201.383 109.715Z" fill="#FFF4EB"/>
<path d="M1.30949 74.9986C1.56604 79.8576 6.04213 83.3157 12.1318 83.3157C18.1336 83.3157 22.2587 79.8098 22.2587 75.1148C22.2587 71.356 19.7877 69.2785 13.9073 67.7818L10.0524 66.7977C3.86822 65.2327 1.07995 62.7588 1.07995 58.6447C1.07995 53.4849 5.92736 49.7467 11.7199 49.7467C17.9041 49.7467 22.5625 53.4166 22.7718 58.18H21.6173C21.408 53.977 17.2087 50.8197 11.7199 50.8197C6.50797 50.8197 2.23442 54.0932 2.23442 58.6447C2.23442 62.2394 4.82015 64.2965 10.4237 65.6974L14.2314 66.6542C20.5303 68.2397 23.4131 70.6931 23.4131 75.0601C23.4131 80.459 18.8425 84.3818 12.0845 84.3818C5.3265 84.3818 0.411577 80.459 0.155029 74.9986H1.30949Z" fill="#FFF4EB"/>
<path d="M38.698 83.9167V51.3113H26.6807V50.2111H51.8562V51.3113H39.8322V83.9167H38.698Z" fill="#FFF4EB"/>
<path d="M58.5332 72.2373C58.5332 79.0372 62.827 83.288 69.585 83.288C76.37 83.288 80.6638 79.0372 80.6638 72.2373V50.2111H81.8183V72.2646C81.8183 79.6454 77.0857 84.3883 69.585 84.3883C62.1114 84.3883 57.3787 79.6454 57.3787 72.2646V50.2111H58.5332V72.2373Z" fill="#FFF4EB"/>
<path d="M99.9589 50.2111C110.113 50.2111 115.878 56.3071 115.878 67.0502C115.878 77.8207 110.113 83.9167 99.9589 83.9167H89.8995V50.2111H99.9589ZM91.0743 82.8233H99.9387C109.424 82.8233 114.731 77.1715 114.731 67.0571C114.731 56.9631 109.424 51.3113 99.9387 51.3113H91.0743V82.8233Z" fill="#FFF4EB"/>
<path d="M122.562 83.9167V50.2111H123.717V83.9167H122.562Z" fill="#FFF4EB"/>
<path d="M159.748 67.0502C159.748 77.6772 154.05 84.3814 145.071 84.3814C136.071 84.3814 130.394 77.6772 130.394 67.0502C130.394 56.4711 136.092 49.7395 145.071 49.7395C154.023 49.7463 159.748 56.4711 159.748 67.0502ZM131.548 67.0502C131.548 76.9528 136.807 83.2811 145.071 83.2811C153.307 83.2811 158.594 76.9528 158.594 67.0502C158.594 57.1476 153.307 50.8398 145.071 50.8398C136.807 50.8398 131.548 57.1476 131.548 67.0502Z" fill="#FFF4EB"/>
<path d="M297.231 69.7291C297.231 69.7291 299.506 68.2188 302.564 68.0821C307.425 67.8634 314.96 69.3601 314.96 69.3601C314.96 69.3601 312.664 72.6815 302.719 72.8797C298.648 72.9617 297.231 69.7291 297.231 69.7291Z" fill="#FFF4EB"/>
<path d="M304.164 62.7173C304.164 62.7173 305.022 60.8311 307.729 60.3459C309.916 59.9495 312.455 60.5441 314.345 60.6876C318.139 60.9883 320.509 61.3573 320.509 61.3573C320.509 61.3573 317.505 64.1935 309.822 64.5147C306.824 64.6377 304.164 62.7173 304.164 62.7173Z" fill="#FFF4EB"/>
<path d="M312.59 54.5848C312.59 54.5848 312.779 53.3546 315.054 52.8216C320.28 51.5846 325.748 52.1245 325.748 52.1245C325.748 52.1245 324.803 54.1952 317.606 56.0472C314.865 56.7443 312.59 54.5848 312.59 54.5848Z" fill="#FFF4EB"/>
<path d="M316.654 47.9762C316.654 47.9762 316.249 45.762 317.066 43.8279C318.085 41.4291 322.535 35.3947 322.535 35.3947C322.535 35.3947 322.258 41.4086 320.82 44.5182C319.598 47.1698 316.654 47.9762 316.654 47.9762Z" fill="#FFF4EB"/>
<path d="M309.795 54.4002C309.795 54.4002 311.51 52.2407 311.476 48.5913C311.456 46.4385 310.72 39.9052 310.72 39.9052C310.72 39.9052 306.845 43.0898 306.993 49.3909C307.047 51.9263 309.795 54.4002 309.795 54.4002Z" fill="#FFF4EB"/>
<path d="M300.957 62.362C300.957 62.362 302.956 60.5168 302.773 58.0565C302.503 54.2909 301.099 47.696 301.099 47.696C301.099 47.696 299.087 53.0813 299.06 56.8947C299.033 60.7696 300.957 62.362 300.957 62.362Z" fill="#FFF4EB"/>
<path d="M293.747 71.3283C293.747 71.3283 295.556 68.0342 294.551 59.0338C294.328 57.0655 291.688 51.6461 291.688 51.6461C291.688 51.6461 291.573 57.1886 290.945 61.1318C290.777 62.1843 290.756 65.5535 291.323 67.3987C292.161 70.1391 293.747 71.3283 293.747 71.3283Z" fill="#FFF4EB"/>
</svg>
