<svg width="110" height="174" viewBox="0 0 110 174" fill="none" xmlns="http://www.w3.org/2000/svg">
<g clip-path="url(#clip0)">
<path d="M98.9436 149.478H0V29.0742H36.441C37.1179 29.0742 37.6444 29.6341 37.6444 30.2686C37.6444 30.903 37.0803 31.4629 36.441 31.4629H2.44444V147.052H96.5368V69.1592C96.5368 68.4873 97.1008 67.9648 97.7402 67.9648C98.3795 67.9648 98.9436 68.5247 98.9436 69.1592V149.478Z" fill="#F9F3EB"/>
<path d="M2.3315 166.685C2.40671 166.872 2.55714 167.058 2.78278 167.245C3.00842 167.394 3.27167 167.544 3.64774 167.693C4.02381 167.842 4.5127 167.954 5.0768 168.066C6.24261 168.327 7.10757 168.701 7.67167 169.149C8.23577 169.596 8.49902 170.231 8.49902 171.052C8.49902 171.5 8.42381 171.911 8.23577 172.284C8.04774 172.657 7.8221 172.956 7.48364 173.217C7.18278 173.478 6.80671 173.665 6.35543 173.814C5.90415 173.963 5.41526 174.038 4.92637 174.038C4.09902 174.038 3.30928 173.889 2.63235 173.627C1.91782 173.366 1.27851 172.956 0.639191 172.358L1.39133 171.5C1.95543 171.985 2.48193 172.358 3.04603 172.62C3.61013 172.881 4.24945 172.993 5.00158 172.993C5.71611 172.993 6.28022 172.844 6.69389 172.508C7.10757 172.172 7.33321 171.761 7.33321 171.201C7.33321 170.94 7.2956 170.716 7.22039 170.53C7.14517 170.343 6.99475 170.156 6.80671 170.007C6.61868 169.858 6.31782 169.708 5.97936 169.559C5.6409 169.447 5.15201 169.298 4.62552 169.186C4.02381 169.074 3.49731 168.925 3.04603 168.738C2.59475 168.551 2.21868 168.365 1.95543 168.141C1.69218 167.917 1.46654 167.618 1.31611 167.32C1.16569 166.984 1.09047 166.611 1.09047 166.2C1.09047 165.789 1.16569 165.416 1.35372 165.043C1.54175 164.707 1.7674 164.409 2.06825 164.147C2.36911 163.886 2.74517 163.699 3.15885 163.55C3.57252 163.401 4.02381 163.326 4.5503 163.326C5.34005 163.326 5.97936 163.438 6.58107 163.625C7.14517 163.849 7.70928 164.147 8.27338 164.558L7.59646 165.454C7.10757 165.043 6.61868 164.782 6.12979 164.595C5.6409 164.409 5.1144 164.334 4.58791 164.334C4.24945 164.334 3.94859 164.371 3.64774 164.483C3.38449 164.558 3.12124 164.707 2.93321 164.856C2.74517 165.006 2.59475 165.192 2.48193 165.379C2.36911 165.603 2.3315 165.827 2.3315 166.051C2.18107 166.237 2.25628 166.461 2.3315 166.685Z" fill="#F9F3EB"/>
<path d="M14.6289 173.851H13.4255V164.52H9.89041V163.438H18.1263V164.52H14.5913V173.851H14.6289Z" fill="#F9F3EB"/>
<path d="M28.9947 169.373C28.9947 170.157 28.8819 170.791 28.6938 171.389C28.4682 171.948 28.1673 172.434 27.7913 172.844C27.4152 173.217 26.9263 173.516 26.3998 173.703C25.8733 173.889 25.2716 174.001 24.5947 174.001C23.9554 174.001 23.3536 173.889 22.8271 173.703C22.3006 173.516 21.8118 173.217 21.4357 172.844C21.0596 172.471 20.7588 171.986 20.5331 171.426C20.3075 170.866 20.2323 170.194 20.2323 169.485V163.401H21.4357V169.41C21.4357 170.53 21.7365 171.426 22.3006 172.023C22.8648 172.62 23.6545 172.919 24.6699 172.919C25.6477 172.919 26.3998 172.62 27.0015 172.06C27.5656 171.501 27.8665 170.642 27.8665 169.485V163.401H29.0699V169.373H28.9947Z" fill="#F9F3EB"/>
<path d="M40.653 170.678C40.3897 171.313 40.0137 171.873 39.4872 172.358C38.9983 172.843 38.3966 173.179 37.7196 173.477C37.0427 173.739 36.2906 173.888 35.4632 173.888H31.8154V163.438H35.4632C36.2906 163.438 37.0427 163.587 37.7196 163.848C38.3966 164.109 38.9983 164.483 39.4872 164.93C39.9761 165.416 40.3521 165.938 40.653 166.573C40.9538 167.207 41.0666 167.879 41.0666 168.625C41.029 169.335 40.9162 170.044 40.653 170.678ZM39.4872 167.021C39.2991 166.498 38.9983 166.087 38.6222 165.714C38.2461 165.341 37.7949 165.042 37.2308 164.818C36.7043 164.595 36.1025 164.483 35.4256 164.483H32.9436V172.731H35.4256C36.1025 172.731 36.7043 172.619 37.2308 172.432C37.7572 172.208 38.2461 171.947 38.6222 171.574C38.9983 171.201 39.2991 170.753 39.4872 170.268C39.6752 169.782 39.788 169.223 39.788 168.625C39.8256 168.066 39.7128 167.506 39.4872 167.021Z" fill="#F9F3EB"/>
<path d="M44.8274 163.401V173.852H43.624V163.401H44.8274Z" fill="#F9F3EB"/>
<path d="M57.8015 170.678C57.5383 171.313 57.1622 171.91 56.7109 172.395C56.222 172.88 55.6579 173.291 55.0186 173.589C54.3417 173.888 53.6272 174.037 52.8374 174.037C52.0477 174.037 51.2955 173.888 50.6562 173.589C50.0169 173.291 49.4528 172.918 48.9639 172.432C48.475 171.947 48.1366 171.387 47.8733 170.716C47.6101 170.081 47.4973 169.372 47.4973 168.663C47.4973 167.954 47.6101 167.245 47.8733 166.61C48.1366 165.976 48.5126 165.378 48.9639 164.893C49.4528 164.408 50.0169 163.997 50.6562 163.699C51.3332 163.4 52.0477 163.251 52.8374 163.251C53.6272 163.251 54.3793 163.4 55.0186 163.699C55.6579 163.997 56.222 164.371 56.7109 164.856C57.1998 165.341 57.5383 165.901 57.8015 166.573C58.0648 167.207 58.1776 167.916 58.1776 168.625C58.1776 169.335 58.0648 170.006 57.8015 170.678ZM56.6357 166.946C56.4477 166.423 56.1468 165.976 55.7708 165.565C55.3947 165.192 54.9434 164.856 54.4545 164.632C53.9656 164.408 53.4015 164.296 52.7998 164.296C52.1981 164.296 51.634 164.408 51.1451 164.632C50.6562 164.856 50.2049 165.154 49.8289 165.565C49.4528 165.938 49.1896 166.423 48.9639 166.946C48.7759 167.468 48.6631 168.028 48.6631 168.625C48.6631 169.223 48.7759 169.783 48.9639 170.305C49.152 170.828 49.4528 171.275 49.8289 171.686C50.2049 172.059 50.6186 172.395 51.1451 172.619C51.634 172.843 52.1981 172.955 52.7998 172.955C53.4015 172.955 53.9656 172.843 54.4545 172.619C54.9434 172.395 55.3947 172.097 55.7708 171.686C56.1468 171.313 56.4101 170.828 56.6357 170.305C56.8238 169.783 56.9366 169.223 56.9366 168.625C56.9366 168.028 56.8614 167.468 56.6357 166.946Z" fill="#F9F3EB"/>
<path d="M65.21 163.401H66.4134V172.732H72.3177V173.815H65.21V163.401Z" fill="#F9F3EB"/>
<path d="M75.7776 163.401V173.852H74.5742V163.401H75.7776Z" fill="#F9F3EB"/>
<path d="M86.6084 163.401H87.7742V173.852H86.834L80.0272 165.305V173.852H78.8614V163.401H79.9896L86.6084 171.762V163.401Z" fill="#F9F3EB"/>
<path d="M91.7607 166.685C91.8359 166.872 91.9864 167.058 92.212 167.245C92.4376 167.394 92.7009 167.544 93.077 167.693C93.453 167.842 93.9043 167.954 94.506 168.066C95.6718 168.327 96.5368 168.701 97.1009 169.149C97.665 169.596 97.9282 170.231 97.9282 171.052C97.9282 171.5 97.853 171.911 97.665 172.284C97.477 172.657 97.2513 172.956 96.9129 173.217C96.612 173.478 96.2359 173.665 95.7847 173.814C95.3334 173.963 94.8445 174.038 94.3556 174.038C93.5282 174.038 92.7385 173.889 92.0616 173.627C91.3847 173.366 90.7077 172.956 90.0684 172.358L90.8206 171.5C91.3847 171.985 91.9112 172.358 92.4753 172.62C93.0394 172.881 93.6787 172.993 94.4308 172.993C95.1453 172.993 95.7094 172.844 96.1231 172.508C96.5368 172.172 96.7624 171.761 96.7624 171.201C96.7624 170.94 96.7248 170.716 96.6496 170.53C96.5744 170.343 96.424 170.156 96.2359 170.007C96.0479 169.858 95.7471 169.708 95.4086 169.559C95.0701 169.447 94.5812 169.298 94.0547 169.186C93.453 169.074 92.9265 168.925 92.4753 168.738C92.024 168.551 91.6479 168.365 91.3847 168.141C91.0838 167.917 90.8958 167.618 90.7453 167.32C90.5949 166.984 90.5197 166.611 90.5197 166.2C90.5197 165.789 90.5949 165.416 90.7829 165.043C90.971 164.707 91.1966 164.409 91.4975 164.147C91.7983 163.886 92.1744 163.699 92.5881 163.55C93.0018 163.401 93.453 163.326 93.9795 163.326C94.7317 163.326 95.4086 163.438 96.0103 163.625C96.5744 163.849 97.1385 164.147 97.7026 164.558L97.0257 165.454C96.5368 165.043 96.0479 164.782 95.559 164.595C95.0701 164.409 94.5436 164.334 94.0171 164.334C93.6787 164.334 93.3778 164.371 93.077 164.483C92.8137 164.558 92.5505 164.707 92.3624 164.856C92.1744 165.006 92.024 165.192 91.9112 165.379C91.7983 165.603 91.7607 165.827 91.7607 166.051C91.6479 166.237 91.6855 166.461 91.7607 166.685Z" fill="#F9F3EB"/>
<path d="M56.4103 97.4129C57.4633 99.2044 63.0291 100.436 65.9248 99.0925C68.4069 97.8981 69.7607 94.9496 71.7163 91.9638C73.8222 88.754 76.4923 85.5069 76.4923 85.5069C76.4923 85.5069 67.2787 85.2456 60.6223 90.6948C59.0428 91.9638 57.4633 94.875 56.6359 96.3306C56.4855 96.5918 56.4103 96.7411 56.3727 96.9651C56.3727 97.0397 56.3351 97.2263 56.4103 97.4129C56.4479 97.4876 56.4103 97.4129 56.4103 97.4129C56.4103 97.4129 59.1932 96.7038 61.1488 95.5095C63.5932 94.0165 66.1881 91.5532 66.1881 91.5532C66.1881 91.5532 65.4359 95.2482 61.6376 97.0397C59.7949 97.8981 57.4257 97.6369 56.7111 97.4129C56.6359 97.3756 56.5983 97.301 56.5983 97.301C56.5231 97.2636 56.4103 97.4129 56.4103 97.4129Z" fill="#F9F3EB"/>
<path d="M74.4616 43.1081C74.9129 42.7349 76.9061 41.1673 76.9437 41.13C79.3129 38.9652 81.5317 36.7259 83.6753 34.4865C83.6753 34.4865 87.9249 38.1815 92.889 36.7632C105.826 32.9936 110 27.0592 110 27.0592C110 27.0592 99.8838 26.0142 90.8582 29.6345C89.2035 30.3063 85.5556 32.583 84.5403 33.1802C85.6685 33.2175 87.4736 33.1802 89.918 32.583C94.0172 31.5753 97.5898 31.0901 97.5898 31.0901C97.5898 31.0901 93.4907 33.4788 91.3095 34.0013C85.8565 35.2329 84.6531 33.1802 84.6531 33.1802L84.7283 33.1055C84.9539 32.8816 86.4582 31.6126 86.6086 31.4633C87.5488 30.4556 88.489 29.4852 89.4291 28.5148C89.5796 28.3655 89.73 28.2535 89.8804 28.1416C90.3693 27.731 90.783 27.3951 91.1591 26.6486C91.4599 25.9768 91.1967 25.0064 90.8582 24.4466C92.5129 23.6628 97.8155 21.7967 99.2445 18.3629C100.373 15.6384 99.2821 12.3166 98.6804 8.54698C97.9659 4.47876 97.7402 0 97.7402 0C97.7402 0 90.2189 6.38224 88.865 15.4891C88.5642 17.5045 89.4291 22.8044 90.4069 23.9614C91.7232 23.7374 90.3317 21.9086 90.6702 18.5869C91.0838 14.5933 93.0394 12.9511 93.077 12.9138C93.3026 12.7272 92.7761 16.5341 92.4753 19.3333C92.1368 22.6178 91.2343 23.3269 90.7454 23.5882C90.4445 23.7748 90.2189 23.6255 90.1437 23.6628L90.5949 23.8121C89.9556 23.8121 89.1659 23.8121 88.4138 23.9987C87.2479 24.2973 86.4582 24.9318 85.8565 25.529C85.7061 25.6782 85.5932 25.7902 85.4052 25.9768C84.089 27.3205 82.8103 28.6641 81.5693 30.0077C80.4035 31.2394 79.2753 32.4337 78.1471 33.5907C78.1471 33.5907 75.7779 32.7323 75.7779 29.1493C75.7779 25.6036 77.8086 21.8713 77.8086 21.8713C77.8086 21.8713 77.5078 25.7156 77.395 29.1493C77.2821 32.3218 78.1847 33.7027 78.1847 33.7027C79.1249 31.9858 81.5317 27.1712 81.795 23.8867C82.0958 20.0798 80.8924 8.77091 80.8924 8.77091C80.8924 8.77091 72.9574 15.5264 72.2052 26.7233C71.9796 30.4556 75.0633 34.4118 76.1163 35.6435C73.3334 38.3308 70.6633 41.018 68.1061 43.5933C68.1061 43.5933 66.865 43.0708 65.8497 40.9434C64.4206 37.8456 65.5488 33.4414 65.5488 33.4414C65.5488 33.4414 66.5642 38.2561 67.1283 40.5328C67.6924 42.8468 68.1813 43.7799 68.1813 43.7799C68.9334 42.3616 69.5351 40.2716 69.2719 38.1441C68.4069 31.2021 65.1727 19.1467 65.1727 19.1467C65.1727 19.1467 61.8633 29.2986 62.1642 36.3153C62.4274 42.0631 64.9095 44.9743 65.8497 45.9073C62.7283 49.1171 59.795 52.2896 57.0497 55.3874C57.0497 55.3874 55.4326 53.6705 54.7556 49.1171C54.342 46.2432 54.2668 39.3385 54.2668 39.3385C57.1625 45.3102 56.9368 55.0142 57.0873 55.7979C57.4633 55.574 59.3061 46.5045 57.0121 36.5766C56.2223 33.1429 50.7693 23.4762 50.7693 23.4762C50.7693 23.4762 51.0702 33.3295 50.2428 40.3835C50.0172 42.2497 50.2804 48.2587 51.4838 51.5058C52.6121 54.5663 54.2291 56.4698 55.2445 57.4402C50.2804 62.5161 40.6907 75.9897 40.6907 75.9897C40.3146 72.8546 39.3368 68.973 38.0958 66.4723C34.0719 58.2239 30.8753 60.0528 34.3727 68.5997C36.2531 73.2278 37.2685 79.9833 37.2685 79.9833C37.2685 79.9833 35.8018 83.305 34.0343 86.2909C29.1078 93.7928 25.6856 101.519 22.9779 110.551C21.3608 115.739 20.8719 120.777 21.4736 125.517C22.1505 130.257 24.4821 131.34 26.3625 131.377C26.4001 131.377 26.4753 131.377 26.5129 131.377C29.8975 131.377 31.4018 129.287 32.6428 127.607L32.9437 127.197C35.5762 123.091 37.3061 118.762 38.7727 113.275C40.8787 105.512 42.0069 94.0541 41.9317 88.3436C41.9317 87.9331 41.7437 83.3423 41.7437 83.3423C41.7437 83.3423 46.0309 76.3629 50.2052 70.7645C53.7403 66.2857 58.3659 60.8366 62.4274 56.2831C63.518 57.6641 65.8873 61.8443 71.6787 61.1351C89.6172 59.0077 93.1522 52.7001 93.1522 52.7001C93.1522 52.7001 79.2753 51.4311 70.5505 52.7001C67.7676 53.1107 64.7215 54.2677 63.0668 55.1634C63.6685 55.3127 66.0377 55.9846 70.2121 55.574C73.6719 55.2381 76.1539 55.2008 78.3727 55.7979C76.6428 56.0219 74.8753 56.619 70.6633 57.2162C65.812 57.9254 63.4428 55.2008 63.4428 55.2008L63.5556 55.0888C63.5933 55.0515 63.5933 55.0515 63.6309 55.0142L63.7437 54.9022C66.677 51.6924 69.6856 48.4826 72.8445 45.2728C73.9727 45.9447 78.2599 48.296 82.9232 47.9601C96.8377 46.9151 102.14 41.6898 102.14 41.6898C102.14 41.6898 97.8155 41.1673 90.9334 40.8687C87.5112 40.7194 83.7881 40.2342 79.8018 40.7568C77.9591 40.9807 75.1385 42.7349 74.1232 43.2947C74.7249 43.2574 79.6514 42.1377 80.9676 42.0631C84.8035 41.8764 87.7744 43.0335 87.7744 43.0335C87.7744 43.0335 84.8035 43.1828 81.118 43.4067C76.9061 43.668 74.9505 43.4067 74.3112 43.2947C74.2736 43.2947 74.3864 43.1828 74.4616 43.1081ZM33.2069 117.903C31.6651 121.486 28.7317 126.824 27.4155 126.824C26.1368 126.786 24.595 123.278 25.9112 115.664C27.7916 104.766 37.9078 86.3282 38.3591 86.0669C38.6599 86.4028 38.3967 105.96 33.2069 117.903Z" fill="#F9F3EB"/>
</g>
<defs>
<clipPath id="clip0">
<rect width="110" height="174" fill="white"/>
</clipPath>
</defs>
</svg>
